<?xml version="1.0" encoding="utf-8"?>
<!-- Generator: Adobe Illustrator 27.8.1, SVG Export Plug-In . SVG Version: 6.00 Build 0)  -->
<svg version="1.1" id="Layer_1" xmlns="http://www.w3.org/2000/svg" xmlns:xlink="http://www.w3.org/1999/xlink" x="0px" y="0px"
	 viewBox="0 0 612 180" style="enable-background:new 0 0 612 180;" xml:space="preserve">
<style type="text/css">
	.st0{fill:#00AB51;}
	.st1{fill:#FFFFFF;}
</style>
<g>
	<g>
		<path class="st0" d="M482.93,70.99l-3.75-9.98c8.3-3.99,10.37-8.3,10.37-16.28h-11.49V21.27h23.14v21.71
			C501.21,55.91,496.18,65.4,482.93,70.99z"/>
	</g>
	<path class="st1" d="M54.94,158.73H21.5V21.27h33.44c19.81,0,31.37,12.39,31.37,32.82v72.64
		C86.32,147.38,74.76,158.73,54.94,158.73z M64.44,53.88c0-8.67-3.31-13-10.94-13H43.39v98.45H53.5c7.63,0,10.94-4.54,10.94-13.01
		V53.88z"/>
	<path class="st1" d="M162.83,161.21c-19.81,0-32.82-13.42-32.82-32.62V51.4c0-18.99,13.01-32.61,32.82-32.61
		c19.82,0,32.82,13.62,32.82,32.61v77.19C195.66,147.79,182.65,161.21,162.83,161.21z M173.57,49.75c0-6.61-3.92-11.15-10.73-11.15
		c-6.81,0-10.73,4.54-10.73,11.15v80.49c0,6.61,3.92,11.15,10.73,11.15c6.81,0,10.73-4.54,10.73-11.15V49.75z"/>
	<path class="st1" d="M270.44,161.21c-19.82,0-32.82-13.42-32.82-32.62V51.4c0-18.99,13.01-32.61,32.82-32.61
		c19.82,0,32.82,13.62,32.82,32.61v77.19C303.26,147.79,290.26,161.21,270.44,161.21z M281.17,49.75c0-6.61-3.93-11.15-10.73-11.15
		c-6.81,0-10.73,4.54-10.73,11.15v80.49c0,6.61,3.92,11.15,10.73,11.15c6.8,0,10.73-4.54,10.73-11.15V49.75z"/>
	<path class="st1" d="M346.08,158.73V21.27h21.88v117.65h31.58v19.82H346.08z"/>
	<path class="st1" d="M470.01,103.42v55.31h-21.88v-55.31l-24.77-82.15h22.29L470.01,103.42z"/>
	<path class="st1" d="M558.3,161.21c-19.82,0-32.2-12.18-32.2-31.58v-12.18h20.02v11.76c0,8.67,3.92,13.63,11.55,13.63
		c7.85,0,11.56-4.75,11.56-12.38c0-11.98-5.98-20.85-17.54-33.03c-11.35-11.35-24.56-27.45-24.56-45
		c0-18.58,10.73-33.65,31.99-33.65c18.38,0,30.34,12.8,30.34,31.58v12.39h-19.82V50.37c0-7.63-3.5-12.79-10.52-12.79
		c-6.4,0-10.73,4.13-10.73,11.14c0,13.42,5.98,20.02,18.78,33.65c13.42,13.82,23.33,27.66,23.33,44.99
		C590.5,149.24,576.25,161.21,558.3,161.21z"/>
</g>
</svg>
