<svg xmlns="http://www.w3.org/2000/svg" xmlns:xlink="http://www.w3.org/1999/xlink" viewBox="0 0 769.12 177.77"><defs><style>.cls-1{fill:#018716;}.cls-2{fill:url(#Gold_Radial);}.cls-3{fill:url(#Gold_Radial-2);}</style><radialGradient id="Gold_Radial" cx="603.81" cy="61.25" r="32.14" gradientUnits="userSpaceOnUse"><stop offset="0" stop-color="#fffbcc"/><stop offset="0.11" stop-color="#fbf2bb"/><stop offset="0.34" stop-color="#f0d98e"/><stop offset="0.37" stop-color="#eed688"/><stop offset="0.69" stop-color="#ebbb10"/><stop offset="1" stop-color="#c3922e"/></radialGradient><radialGradient id="Gold_Radial-2" cx="603.82" cy="126.52" r="28.23" xlink:href="#Gold_Radial"/></defs><title>Asset 1</title><g id="Layer_2" data-name="Layer 2"><g id="Layer_1-2" data-name="Layer 1"><path class="cls-1" d="M535.34,89.81a58.31,58.31,0,0,1-15.64,2c-26.45,0-48.08-19-48.08-46.08S493.61,0,519.94,0c16.22,0,26.8,5.52,37.26,16l-8.82,9c-8-8.7-15.87-12.34-27.74-12.34-19.63,0-36.55,12.46-36.55,33.14S500.78,79,520.41,79a41.89,41.89,0,0,0,10.11-1.17c6.11-1.53,16.1-6,16.1-13.52V54.42H518.76V41.73H559.2V65.12C559.2,78.29,546.74,86.63,535.34,89.81Z"/><path class="cls-1" d="M651.19,89.69V28.8h12.57V77.23h34.68V89.69Z"/><path class="cls-1" d="M731.47,41V52.19h22.1V64.3h-22.1V89.69h-12V28.8h49.64V41Z"/><path class="cls-2" d="M613.43,30.61C596,25.3,578.08,34.77,573,51.69,567.89,68.93,577.46,87,594.39,92a32.13,32.13,0,0,0,19-61.38ZM622,57.48c0-.19,0-.39,0-.58a6.73,6.73,0,0,1,.27-1.16,3.64,3.64,0,0,1,.66-1.29,2.66,2.66,0,0,1,.63-.54,2.19,2.19,0,0,1,1.16-.28h0a2.76,2.76,0,0,1,.4.06,3.23,3.23,0,0,1,2,2c0,.1.07.19.09.29a5.43,5.43,0,0,1,.13,1.74c0,.15,0,.29,0,.43a8.54,8.54,0,0,1-.29,1.29,4.28,4.28,0,0,1-1,1.92,2.34,2.34,0,0,1-1.26.56l-.43,0a1.9,1.9,0,0,1-1.92-1.37l-.06-.16a2.68,2.68,0,0,0-.07-.27,8.46,8.46,0,0,1-.3-2A5.61,5.61,0,0,1,622,57.48ZM593.74,70.37a6,6,0,0,1,1.6.35,5.18,5.18,0,0,1,.76.34c.15.07.29.15.43.23a6.25,6.25,0,0,1,.92.68,4.58,4.58,0,0,1,1.32,1.91,3,3,0,0,1,.17,1,2.12,2.12,0,0,1-.07.45,1.63,1.63,0,0,1-.41.75,2.39,2.39,0,0,1-1.3.68,6.36,6.36,0,0,1-3.32-.21,9.77,9.77,0,0,1-2.08-.88,11.12,11.12,0,0,1-1-.65,3,3,0,0,1-.54-.51,1.89,1.89,0,0,1-.51-1.39,2.64,2.64,0,0,1,.54-1.31,3.38,3.38,0,0,1,.66-.7,3.56,3.56,0,0,1,.83-.47,4.22,4.22,0,0,1,1.5-.3A4.69,4.69,0,0,1,593.74,70.37Zm-6-1.82a.65.65,0,0,1,.19-.43,2.08,2.08,0,0,1,.89-.49,3.51,3.51,0,0,1,.49-.12,4.94,4.94,0,0,1,.89-.07,5.61,5.61,0,0,1,.95.08c.88.17,1.5.57,1.5,1h0a.63.63,0,0,1-.1.32,3,3,0,0,1-2.35.8,4.4,4.4,0,0,1-1.74-.32A1.82,1.82,0,0,1,588,69a.65.65,0,0,1-.19-.44Zm-7.66,6.28a.59.59,0,0,1-.22.4l-.11,0a.48.48,0,0,1-.44-.21,10.23,10.23,0,0,1-.84-1.15,5.2,5.2,0,0,1-.35-.6,7.88,7.88,0,0,1-.92-3.37.62.62,0,0,1,0-.27.39.39,0,0,1,.08-.14l.11,0a.48.48,0,0,1,.38.07,4.25,4.25,0,0,1,1.21,1.62c.13.26.26.54.38.82a10.37,10.37,0,0,1,.57,1.64c0,.12.06.24.08.36a2.77,2.77,0,0,1,0,.61A.8.8,0,0,1,580.11,74.83ZM581.92,71a5.11,5.11,0,0,1-.74-1,4.64,4.64,0,0,1-.58-2.41c0-.11,0-.23,0-.34a4.28,4.28,0,0,1,.1-.64,2.81,2.81,0,0,1,.1-.31,1.86,1.86,0,0,1,1.23-1.09,1.65,1.65,0,0,1,.62,0,3,3,0,0,1,1.37.69,7.41,7.41,0,0,1,2.1,2.46c.12.23.23.48.33.72a8.74,8.74,0,0,1,.43,1.56c.05.27.09.54.12.82a1.28,1.28,0,0,1-1.41,1.54,3.72,3.72,0,0,1-1.06-.19A6.17,6.17,0,0,1,581.92,71Zm7.92,12.57a.71.71,0,0,1-.87.22c-1.45-.62-3.12-.88-4-2.41a8.19,8.19,0,0,1-.54-.77.51.51,0,0,1,.06-.58.52.52,0,0,1,.49-.22,1.75,1.75,0,0,1,.44.07l.35.08h.2l.3.14.44.22A11.89,11.89,0,0,1,588.9,82c.3.27.58.55.87.83a.56.56,0,0,1,.19.36A.53.53,0,0,1,589.84,83.55Zm4.62,4a2.14,2.14,0,0,1-.3.17,4.39,4.39,0,0,1-1.74.33,5.11,5.11,0,0,1-.9-.08l-.16,0a3.46,3.46,0,0,1-.54-.16c-.52-.21-.85-.51-.85-.84,0-.62,1.09-1.12,2.45-1.12a3.81,3.81,0,0,1,2,.49,1,1,0,0,1,.22.19.62.62,0,0,1,.2.44A.81.81,0,0,1,594.46,87.53Zm4.42-2.74c-.39-.08-.79-.17-1.19-.29s-.86-.31-1.26-.53l-.16-.1a1.58,1.58,0,0,1-.29-.22,1.22,1.22,0,0,1-.26-.38,1.16,1.16,0,0,1-.09-.47,1.93,1.93,0,0,1,0-.23c.15-1.07,1.22-1.09,2.11-1.17l.37-.05a4.44,4.44,0,0,1,.62,0,5.65,5.65,0,0,1,1.65.17,7.82,7.82,0,0,1,2.33,1,1.42,1.42,0,0,1,.71.76,1.13,1.13,0,0,1,0,.18.67.67,0,0,1,0,.2,1.24,1.24,0,0,1,0,.22,1.06,1.06,0,0,1-.19.33,1.29,1.29,0,0,1-.3.22,3.5,3.5,0,0,1-.55.22,6.9,6.9,0,0,1-2.33.31A7.74,7.74,0,0,1,598.88,84.79ZM606.26,90c0,.31-.27.59-.72.79a3.12,3.12,0,0,1-.78.24,4.72,4.72,0,0,1-1,.09,4.82,4.82,0,0,1-1-.09c-.88-.17-1.5-.57-1.5-1a.53.53,0,0,1,.1-.29,2.87,2.87,0,0,1,2.36-.83c1.35,0,2.45.5,2.45,1.12Zm-1.38-11a4,4,0,0,1-1.17-.54,2.37,2.37,0,0,1-1.09-1.66,2.64,2.64,0,0,1,.93-2.23l.34-.31.39-.28a6,6,0,0,1,.86-.48,7.66,7.66,0,0,1,1.44-.5,9.13,9.13,0,0,1,1-.19l.52,0h.51l.5,0a3.86,3.86,0,0,1,.49.06,5.49,5.49,0,0,1,.93.22l.43.16a3.28,3.28,0,0,1,.72.46,2,2,0,0,1,.41.45,2.16,2.16,0,0,1,.41,1,2.58,2.58,0,0,1,0,.29,2.34,2.34,0,0,1-.16.86,2.52,2.52,0,0,1-.79,1,7.92,7.92,0,0,1-5,1.94A6.7,6.7,0,0,1,604.88,79Zm9.48,6.23a1.5,1.5,0,0,1-.09.18l-.13.18c-.64.84-2.87,1.65-4.36,1.74a2.69,2.69,0,0,1-.88-.06.8.8,0,0,1-.53-.31.61.61,0,0,1,.07-.6c0-.08.1-.17.16-.25a1.83,1.83,0,0,1,.4-.38,7.53,7.53,0,0,1,2.45-1.12c.26-.07.53-.13.79-.18a5,5,0,0,1,1-.1h0a2.05,2.05,0,0,1,.54.08.88.88,0,0,1,.41.21.45.45,0,0,1,.17.27.43.43,0,0,1,0,.16A1.21,1.21,0,0,1,614.36,85.18ZM615.25,71l-.47-.19a2.22,2.22,0,0,1-.7-.51,2.05,2.05,0,0,1-.4-.66,3,3,0,0,1-.18-.78,5.52,5.52,0,0,1,0-.82,7.89,7.89,0,0,1,.18-1.39,6.53,6.53,0,0,1,.77-1.87,6.37,6.37,0,0,1,1.39-1.56,3.58,3.58,0,0,1,3-.82,3.64,3.64,0,0,1,.47.14,3.17,3.17,0,0,1,.45.23,2.86,2.86,0,0,1,.42.31,2.24,2.24,0,0,1,.66,1,3,3,0,0,1,.13.54,5.56,5.56,0,0,1-.06,1.4l-.06.34c0,.21-.08.4-.12.58V67c-.06.17-.12.34-.19.51s-.13.33-.2.49a7.14,7.14,0,0,1-.5.9,5.88,5.88,0,0,1-.8,1,4.92,4.92,0,0,1-.59.51A3.33,3.33,0,0,1,615.25,71Zm4.19,12.78a5.2,5.2,0,0,1-.53.79,4.62,4.62,0,0,1-1,.94,2.49,2.49,0,0,1-.66.32.77.77,0,0,1-.75-.07h0a.6.6,0,0,1-.19-.35,1.09,1.09,0,0,1,0-.37s0,0,0-.06a2.51,2.51,0,0,1,.17-.65,5.27,5.27,0,0,1,.72-1.18,5.16,5.16,0,0,1,1-.94,2.09,2.09,0,0,1,.95-.37.69.69,0,0,1,.46.12.81.81,0,0,1,.22.73A3,3,0,0,1,619.44,83.75Zm1.63-5.62c-.11.1-.23.18-.35.27a7.17,7.17,0,0,1-.75.46,5.68,5.68,0,0,1-1.15.49,3.49,3.49,0,0,1-1.08.16,1.36,1.36,0,0,1-1.48-1.31,1.53,1.53,0,0,1,.22-.76,7.65,7.65,0,0,1,.88-1.26,6.34,6.34,0,0,1,3.85-2.1,1.89,1.89,0,0,1,.47,0h.05a1.35,1.35,0,0,1,.59.15,1.07,1.07,0,0,1,.53.54,1.78,1.78,0,0,1,0,1.2,4.17,4.17,0,0,1-.54,1,6.27,6.27,0,0,1-.55.62A6,6,0,0,1,621.07,78.13Zm4.36,3.92a3.12,3.12,0,0,1-.31.76,4.63,4.63,0,0,1-.54.79,4.55,4.55,0,0,1-1.14,1c-.52.31-1,.4-1.28.18a.8.8,0,0,1-.22-.72,3.1,3.1,0,0,1,.37-1.1,6.17,6.17,0,0,1,.54-.79,4.87,4.87,0,0,1,1-.94,2.49,2.49,0,0,1,.66-.32.8.8,0,0,1,.75.07A1,1,0,0,1,625.43,82.05Zm2.89-6.86a5.12,5.12,0,0,1-.54.8,4.8,4.8,0,0,1-.67.68l-.35.26a2.59,2.59,0,0,1-.65.32,1.05,1.05,0,0,1-.55,0,.56.56,0,0,1-.2-.11c-.48-.39-.17-1.56.69-2.61q.16-.19.33-.36a3.49,3.49,0,0,1,1.35-.9,1.47,1.47,0,0,1,.29,0,.65.65,0,0,1,.46.13.81.81,0,0,1,.21.72A3,3,0,0,1,628.32,75.19Zm1.83-9a6.49,6.49,0,0,1-.47,1.94,5.86,5.86,0,0,1-.61,1.13,6.56,6.56,0,0,1-.86,1h0a5.52,5.52,0,0,1-.53.43,1.12,1.12,0,0,1-.81.28h0a.57.57,0,0,1-.22-.07,1,1,0,0,1-.45-.65,3.09,3.09,0,0,1-.07-.35,2.28,2.28,0,0,1,0-.37,5.49,5.49,0,0,1,.19-.93,2.92,2.92,0,0,0,.1-.35l.09-.27a2.25,2.25,0,0,1,.08-.24,5,5,0,0,1,.32-.66,5.15,5.15,0,0,1,.84-1.06,5.85,5.85,0,0,1,.76-.62,1.76,1.76,0,0,1,.71-.33h0a.67.67,0,0,1,.31,0,.61.61,0,0,1,.17.07.42.42,0,0,1,.14.09.6.6,0,0,1,.19.23,1.11,1.11,0,0,1,.07.16A1.56,1.56,0,0,1,630.15,66.18Zm1.74-8a1,1,0,0,0-.06.16,1.45,1.45,0,0,1-.1.25.38.38,0,0,1-.11.14.47.47,0,0,1-.19.06h-.18a.49.49,0,0,1-.17-.06.6.6,0,0,1-.19-.16l-.07-.08a9.52,9.52,0,0,1-1.42-4.14c0-.24,0-.49,0-.74s0-.5,0-.75c0-.41.2-.58.39-.61a.57.57,0,0,1,.45.18.67.67,0,0,1,.14.15,6.62,6.62,0,0,1,.44.64,7.24,7.24,0,0,1,.83,2c.05.24.1.48.13.72A10.75,10.75,0,0,1,631.89,58.22Zm2.59,6.41a3.85,3.85,0,0,1,0,.48,4.65,4.65,0,0,1-.14.87c-.05.17-.1.34-.16.49a2.81,2.81,0,0,1-.27.52.88.88,0,0,1-.74.48c-.39,0-.7-.52-.85-1.22a4.62,4.62,0,0,1-.07-1.31,5,5,0,0,1,.21-1.09,2.37,2.37,0,0,1,.65-1.12.8.8,0,0,1,.22-.12.46.46,0,0,1,.23,0h.05a.67.67,0,0,1,.28.14,1.45,1.45,0,0,1,.4.62,4,4,0,0,1,.21,1.27Z"/><path class="cls-3" d="M603.78,96.5h0A36.36,36.36,0,0,1,593.5,95a34.68,34.68,0,0,1-8.35-3.73l6.26,14.7h4.37l4,36.8.34,3.16,1,9.16,2.48,6.73H604l2.48-6.73,1-9,.33-3,4-37.15h4.36l6.28-14.75A35.45,35.45,0,0,1,603.78,96.5Z"/><path class="cls-1" d="M628,169.24l-.55.41c-.23.14-.49.33-.78.5a24.47,24.47,0,0,1-5.27,2.21,62.62,62.62,0,0,1-8.34,1.82c-3.24.51-6.89.9-10.89,1.21-1.31.1-2.47.18-3.84.26h0l-.29,0c-2.15.1-6.49.27-8.78.33-4.58.11-9.41.12-14.41.09q-3.75,0-7.61-.12l-7.81-.21c-5.24-.15-10.58-.38-15.91-.65s-10.66-.54-15.91-.87-10.41-.65-15.41-1l-14.41-1.06-12.9-1-19.32-1.63c-4.45-.39-7.08-.63-7.31-.64l1.89.27c1.25.17,3.07.44,5.4.74s5.16.68,8.4,1.08,6.91.83,10.9,1.27,8.33.9,12.91,1.35,9.4.91,14.4,1.31l7.61.62q3.87.3,7.8.56c5.25.35,10.59.67,15.92.94s10.68.45,15.93.59l3.92.09,3.89.05c2.57,0,5.12,0,7.62,0,5,0,9.84-.14,14.43-.34,2.29-.11,6.36-.33,8.51-.49l1.78-.18h0l2.59-.26c4-.41,7.66-.94,10.9-1.57a59.51,59.51,0,0,0,8.34-2.18,24.55,24.55,0,0,0,5.25-2.48c.29-.19.55-.39.77-.55l.55-.44c.21-.2.35-.32.41-.37Z"/><path class="cls-1" d="M585.06,156.3c-10.66-.27-21.91-.43-33.54-.45-5.82,0-11.73,0-17.72,0l-9,.07-9.12.11c-12.21.18-24.62.44-37,.77s-24.8.76-37,1.21q-9.15.33-18.13.73l-17.69.79c-11.62.53-22.85,1.12-33.49,1.7s-20.71,1.17-30,1.75-17.79,1.13-25.33,1.64-14.12,1-19.53,1.39-9.66.74-12.56,1l-4.41.35,17-.83,44.91-2.11,30-1.32,33.49-1.37c11.61-.47,23.62-.88,35.82-1.31s24.59-.81,37-1.13,24.78-.64,37-.84l18.13-.27c6-.08,11.89-.13,17.7-.16,11.62,0,22.86,0,33.5.12q7.29.1,14.17.28l-.18-1.67Q592.23,156.48,585.06,156.3Z"/><path class="cls-1" d="M675.08,166.84c-.33-.16-.76-.34-1.27-.57s-1.11-.46-1.79-.7a82.25,82.25,0,0,0-12.19-3.21c-5.34-1.05-11.88-2-19.4-2.82s-16-1.5-25.33-2c-2.42-.14-4.6-.27-7-.39l-.17,1.53c2.43.08,4.65.17,7.1.27,9.28.4,17.79.9,25.31,1.56s14.06,1.45,19.4,2.36A84.72,84.72,0,0,1,672,165.69c.69.22,1.29.46,1.81.65s1,.38,1.29.53l1,.46Z"/><path d="M0,139.7V119H1.57V139.7Z"/><path d="M10.41,119l14,17.16V119h1.57V139.7h-.62l-14-17.14V139.7H9.72V119Z"/><path d="M51.52,129.09c.12,5.27-3.26,10.61-10.52,10.61H34V119h7C48,119,51.4,124,51.52,129.09Zm-15.94-8.63v17.7H41c6.17,0,9-4.63,8.92-9.07S47,120.46,41,120.46Z"/><path d="M79,129.35c0,5.46-3.49,10.7-10.46,10.7s-10.46-5.27-10.46-10.76,3.46-10.67,10.46-10.67S79.06,123.75,79,129.35Zm-19.35,0c0,4.69,3,9.25,8.89,9.25s8.92-4.56,8.92-9.25-3-9.22-8.92-9.22S59.65,124.43,59.68,129.32Z"/><path d="M106.43,129.35c0,5.46-3.5,10.7-10.47,10.7S85.5,134.78,85.5,129.29,89,118.62,96,118.62,106.46,123.75,106.43,129.35Zm-19.36,0c0,4.69,3,9.25,8.89,9.25s8.93-4.56,8.93-9.25-3-9.22-8.93-9.22S87,124.43,87.07,129.32Z"/><path d="M130.35,139.7h-2.1l-7.18-7.86h-5.66v7.86h-1.6V119h9.13a6.41,6.41,0,0,1,6.82,6.46c0,3.38-2.19,6.34-6.73,6.34Zm-14.94-9.37h7.35c3.62,0,5.22-2,5.25-5a4.78,4.78,0,0,0-5.07-4.95h-7.53Z"/><path d="M165.51,119,157,139.76h-1.72L146.72,119h1.72l7.68,19,7.67-19Z"/><path d="M171.86,139.7V119h1.57V139.7Z"/><path d="M198.12,139.7H196l-7.18-7.86h-5.66v7.86h-1.6V119h9.13a6.41,6.41,0,0,1,6.82,6.46c0,3.38-2.19,6.34-6.73,6.34Zm-14.94-9.37h7.35c3.62,0,5.22-2,5.25-5a4.78,4.78,0,0,0-5.07-4.95h-7.53Z"/><path d="M211.17,120.4h-7.5V119h16.6v1.42h-7.5v19.3h-1.6Z"/><path d="M243.36,119v12.89c0,10.85-15.89,10.88-15.89,0V119H229v12.89a6.38,6.38,0,1,0,12.75,0V119Z"/><path d="M267.79,139.7l-2.28-5.1H253.12l-2.25,5.1h-1.72l9.3-20.75h1.75l9.31,20.75Zm-2.9-6.58-5.58-12.63-5.57,12.63Z"/><path d="M277.64,119v19.24h11.67v1.51H276V119Z"/><path d="M325,129.09c.12,5.27-3.26,10.61-10.53,10.61h-7V119h7C321.51,119,324.89,124,325,129.09Zm-15.95-8.63v17.7h5.42c6.17,0,9-4.63,8.93-9.07a8.45,8.45,0,0,0-8.93-8.63Z"/><path d="M348.75,139.7h-2.1l-7.17-7.86h-5.67v7.86h-1.6V119h9.13a6.41,6.41,0,0,1,6.82,6.46c0,3.38-2.19,6.34-6.73,6.34Zm-14.94-9.37h7.36c3.61,0,5.21-2,5.24-5a4.78,4.78,0,0,0-5.07-4.95h-7.53Z"/><path d="M355,139.7V119h1.57V139.7Z"/><path d="M381.93,119l-8.54,20.81h-1.72L363.13,119h1.72l7.68,19,7.68-19Z"/><path d="M388.27,139.7V119h1.58V139.7Z"/><path d="M398.68,119l14,17.16V119h1.57V139.7h-.62l-14-17.14V139.7H398V119Z"/><path d="M438.73,122.77a9.65,9.65,0,0,0-6.67-2.67c-6.08,0-9.19,4.45-9.16,9.25s3.11,9.1,9.16,9.1a9.34,9.34,0,0,0,6.31-2.4v-5.81h-7.23v-1.39h8.75v7.76a10.72,10.72,0,0,1-7.83,3.35c-7.05,0-10.7-4.92-10.7-10.58,0-6.49,4.39-10.73,10.7-10.73a10.81,10.81,0,0,1,7.59,3.11Z"/><path d="M476.06,139.7H474l-7.17-7.86h-5.66v7.86h-1.61V119h9.13a6.41,6.41,0,0,1,6.82,6.46c0,3.38-2.19,6.34-6.73,6.34Zm-14.94-9.37h7.35c3.61,0,5.21-2,5.24-5a4.78,4.78,0,0,0-5.07-4.95h-7.52Z"/><path d="M498.79,139.7l-2.28-5.1H484.12l-2.25,5.1h-1.72L489.46,119h1.75l9.3,20.75Zm-2.9-6.58-5.57-12.63-5.58,12.63Z"/><path d="M507.45,119l14,17.16V119H523V139.7h-.62l-14-17.14V139.7h-1.6V119Z"/><path d="M547.5,122.77a9.65,9.65,0,0,0-6.67-2.67c-6.07,0-9.19,4.45-9.16,9.25s3.12,9.1,9.16,9.1a9.36,9.36,0,0,0,6.32-2.4v-5.81h-7.24v-1.39h8.75v7.76a10.7,10.7,0,0,1-7.83,3.35c-7.05,0-10.7-4.92-10.7-10.58,0-6.49,4.39-10.73,10.7-10.73a10.81,10.81,0,0,1,7.59,3.11Z"/><path d="M558.12,128.52h12.15V130H558.12v8.19h13.1v1.54H556.55V119h14.31v1.51H558.12Z"/><path class="cls-1" d="M63.69,89.69,36.54,42,13.62,66.3V89.69H.92V2h12.7V47.84L56.88,2H74.63l-29,30.44L78.5,89.69Z"/><path class="cls-1" d="M152.56,82.05c-5.88,7.29-16.57,9.64-25.51,9.64-16.92,0-28.68-7.88-28.68-25.86v-37h12.11v37c0,12.46,8,13.52,18.34,13.52a25.38,25.38,0,0,0,11.75-2.71c3.41-1.88,4.59-4.23,4.59-10.81v-37h12v37C157.15,72.17,156.68,76.88,152.56,82.05Z"/><path class="cls-1" d="M225.44,89.69h-33V28.8h33c18.46,0,30.8,10.46,30.8,30C256.24,77.7,244,89.69,225.44,89.69Zm0-48.67H205.11V77.46h20.33c11.64,0,18.46-6.81,18.46-18.45C243.9,47.14,237.08,41,225.44,41Z"/><path class="cls-1" d="M312.55,91.69c-19.16,0-37.26-12.11-37.26-32.68S293.74,26.8,312.67,26.8c19.16,0,37.49,10.82,37.49,31.86C350.16,79.35,331.83,91.69,312.55,91.69Zm.23-52.43c-12.22,0-25.15,6.11-25.15,20s13.16,20,25.27,20,24.92-7.17,24.92-20.46C337.82,45.14,324.66,39.26,312.78,39.26Z"/><path class="cls-1" d="M403.18,91.81C388,91.81,381.43,89.69,369,81l5.65-10.93c12,7.52,18.33,9.4,32.56,9.4,5.29,0,15.28-1.64,15.28-8.7,0-4.93-5.29-5.87-9.17-6.11-6.11-.35-12.11-.23-18.22-.47-11.17-.47-22.22-6-22.22-18.69,0-15.28,16.34-18.69,28.57-18.69,11.28,0,19.51,2.7,29.38,8l-5.52,10.82a54.59,54.59,0,0,0-26.8-6.7c-4.35,0-13.4,1.17-13.4,7.05,0,4.94,7.17,5.76,10.81,5.88,5.29.23,10.58.12,15.87.35,12.23.47,23,5.29,23,19.16C434.8,88.28,416.58,91.81,403.18,91.81Z"/></g></g></svg>